<?xml version="1.0" encoding="UTF-8"?>
<svg width="21px" height="27px" viewBox="0 0 21 27" version="1.1" xmlns="http://www.w3.org/2000/svg" xmlns:xlink="http://www.w3.org/1999/xlink">
    <title>05BF1637-0EE2-419B-AD96-A90A91B3DB71</title>
    <desc>Created with sketchtool.</desc>
    <defs></defs>
    <g id="Symbols" stroke="none" stroke-width="1" fill="none" fill-rule="evenodd">
        <g id="illustration/_logo_21x27_white" fill="#0095DA">
            <g>
                <path d="M10.8181818,3.28934995 C10.8181818,4.18693704 10.0796696,5.01209289 9.19026533,5.12894328 C8.32335175,5.24339264 7.63636364,4.63913205 7.63636364,3.78236256 C7.63636364,2.92559308 8.32335175,2.10884085 9.19026533,1.95397406 C10.0796696,1.79590589 10.8181818,2.39176286 10.8181818,3.28934995" id="Fill-1"></path>
                <path d="M16.3324902,1.91041364 C16.3324902,3.07836818 15.4044598,4.15877727 14.2930508,4.31914091 C13.2176492,4.47418636 12.3705432,3.70345909 12.3705432,2.60177727 C12.3705432,1.50050455 13.2176492,0.434413636 14.2930508,0.213913636 C15.4044598,-0.01395 16.3324902,0.742868182 16.3324902,1.91041364" id="Fill-3"></path>
                <path d="M10.8181818,8.20803365 C10.8181818,9.29900053 10.0752085,10.2288349 9.18399103,10.2832379 C8.31905797,10.3359797 7.63636364,9.53986874 7.63636364,8.50662717 C7.63636364,7.47297031 8.31905797,6.54895002 9.18399103,6.43931346 C10.0752085,6.32635457 10.8181818,7.11706677 10.8181818,8.20803365" id="Fill-6"></path>
                <path d="M5.72727273,8.26483393 C5.72727273,8.9885475 5.138019,9.60534093 4.42719132,9.64121316 C3.73270014,9.67638884 3.18181818,9.14283293 3.18181818,8.44907092 C3.18181818,7.75635374 3.73270014,7.14234651 4.42719132,7.07721926 C5.138019,7.00965408 5.72727273,7.54112035 5.72727273,8.26483393" id="Fill-8"></path>
                <path d="M16.5454545,7.60618716 C16.5454545,8.32879299 15.8097113,8.95240683 14.9211405,8.99743568 C14.0530303,9.04139241 13.3636364,8.51498371 13.3636364,7.82203974 C13.3636364,7.12909577 14.0530303,6.50941302 14.9211405,6.43579443 C15.8097113,6.36038897 16.5454545,6.8839387 16.5454545,7.60618716" id="Fill-10"></path>
                <path d="M10.8181818,13.5002083 C10.8181818,14.594401 10.0752085,15.4570098 9.18399103,15.4278536 C8.31905797,15.3995303 7.63636364,14.5360885 7.63636364,13.5002083 C7.63636364,12.4639115 8.31905797,11.6004697 9.18399103,11.5721464 C10.0752085,11.5429902 10.8181818,12.4055989 10.8181818,13.5002083" id="Fill-12"></path>
                <path d="M15.9090909,13.1787582 C15.9090909,14.0889997 15.1684293,14.8072575 14.2781743,14.7852205 C13.4119237,14.7628099 12.7272727,14.0438051 12.7272727,13.1787582 C12.7272727,12.3133378 13.4119237,11.5943329 14.2781743,11.5719224 C15.1684293,11.5498854 15.9090909,12.2681432 15.9090909,13.1787582" id="Fill-14"></path>
                <path d="M10.1818182,18.7422914 C10.1818182,19.4641826 9.59482843,19.9918379 8.8845512,19.9224402 C8.18919412,19.8545932 7.63636364,19.2377678 7.63636364,18.5434029 C7.63636364,17.8490381 8.18919412,17.3182813 8.8845512,17.3593772 C9.59482843,17.4008607 10.1818182,18.0204001 10.1818182,18.7422914" id="Fill-16"></path>
                <path d="M15.9090909,19.098927 C15.9090909,20.0063785 15.1684293,20.6596096 14.2781743,20.561718 C13.4119237,20.4664319 12.7272727,19.692232 12.7272727,18.8294459 C12.7272727,17.967032 13.4119237,17.3085899 14.2781743,17.3599551 C15.1684293,17.4131813 15.9090909,18.1918477 15.9090909,19.098927" id="Fill-18"></path>
                <path d="M10.8181818,24.0813896 C10.8181818,25.1626065 10.0752085,25.8766954 9.18399103,25.6824303 C8.31905797,25.4931041 7.63636364,24.5139587 7.63636364,23.4895395 C7.63636364,22.4651204 8.31905797,21.739919 9.18399103,21.8728589 C10.0752085,22.0095029 10.8181818,23.0001726 10.8181818,24.0813896" id="Fill-20"></path>
                <path d="M16.5454545,24.748696 C16.5454545,25.8297716 15.6510992,26.5309177 14.5800192,26.3195511 C13.5436403,26.1150028 12.7272727,25.1282467 12.7272727,24.1085356 C12.7272727,23.0888245 13.5436403,22.3747995 14.5800192,22.5183621 C15.6510992,22.666849 16.5454545,23.6672416 16.5454545,24.748696" id="Fill-22"></path>
                <path d="M1.23607273,4.66135714 C1.23607273,5.03087143 0.9548,5.36798571 0.611587879,5.4135 C0.272193939,5.45862857 -0.00016969697,5.20135714 -0.00016969697,4.83917143 C-0.00016969697,4.47737143 0.272193939,4.14141429 0.611587879,4.08934286 C0.9548,4.03572857 1.23607273,4.29184286 1.23607273,4.66135714" id="Fill-24"></path>
                <path d="M5.09090909,3.76534674 C5.09090909,4.12069618 4.80132468,4.44735496 4.44789489,4.49436617 C4.09826543,4.54068604 3.81818182,4.29629688 3.81818182,3.94855219 C3.81818182,3.60115318 4.09826543,3.27587709 4.44789489,3.22195246 C4.80132468,3.1673365 5.09090909,3.41034297 5.09090909,3.76534674" id="Fill-27"></path>
                <path d="M20.8842242,1.23467143 C20.8842242,1.79095714 20.3691939,2.3181 19.7425879,2.41067143 C19.1248909,2.50195714 18.6310727,2.13638571 18.6310727,1.5951 C18.6310727,1.05381429 19.1248909,0.5301 19.7425879,0.423814286 C20.3691939,0.316242857 20.8842242,0.678385714 20.8842242,1.23467143" id="Fill-29"></path>
                <path d="M1.23607273,8.88698571 C1.23607273,9.19491429 0.9548,9.45880714 0.611587879,9.47648571 C0.272193939,9.49352143 -0.00016969697,9.26273571 -0.00016969697,8.96123571 C-0.00016969697,8.65941429 0.272193939,8.39584286 0.611587879,8.3727 C0.9548,8.34891429 1.23607273,8.57905714 1.23607273,8.88698571" id="Fill-32"></path>
                <path d="M20.8842242,7.51967143 C20.8842242,8.07595714 20.3691939,8.56195714 19.7425879,8.60438571 C19.1248909,8.64638571 18.6310727,8.24138571 18.6310727,7.69967143 C18.6310727,7.15881429 19.1248909,6.67452857 19.7425879,6.61795714 C20.3691939,6.56052857 20.8842242,6.96338571 20.8842242,7.51967143" id="Fill-35"></path>
                <path d="M1.23607273,12.9252536 C1.23607273,13.2331821 0.9548,13.4803607 0.611587879,13.4771464 C0.272193939,13.4739321 -0.00016969697,13.2267536 -0.00016969697,12.9252536 C-0.00016969697,12.6234321 0.272193939,12.376575 0.611587879,12.3730393 C0.9548,12.369825 1.23607273,12.617325 1.23607273,12.9252536" id="Fill-38"></path>
                <path d="M5.09090909,13.5001745 C5.09090909,13.8586732 4.80132468,14.146659 4.44789489,14.1428192 C4.09826543,14.1386303 3.81818182,13.8513427 3.81818182,13.5001745 C3.81818182,13.1486573 4.09826543,12.8613697 4.44789489,12.8571808 C4.80132468,12.853341 5.09090909,13.1413268 5.09090909,13.5001745" id="Fill-41"></path>
                <path d="M20.8842242,13.5908143 C20.8842242,14.1471 20.3691939,14.5915286 19.7425879,14.5838143 C19.1248909,14.5769571 18.6310727,14.1321 18.6310727,13.5908143 C18.6310727,13.0491 19.1248909,12.6042429 19.7425879,12.5973857 C20.3691939,12.5896714 20.8842242,13.0341 20.8842242,13.5908143" id="Fill-43"></path>
                <path d="M1.23607273,17.7844114 C1.23607273,18.1539257 0.9548,18.4300971 0.611587879,18.40194 C0.272193939,18.3737829 -0.00016969697,18.0574971 -0.00016969697,17.6956971 C-0.00016969697,17.3331257 0.272193939,17.0565686 0.611587879,17.0770114 C0.9548,17.0982257 1.23607273,17.4148971 1.23607273,17.7844114" id="Fill-46"></path>
                <path d="M5.09090909,18.0461609 C5.09090909,18.4041813 4.80132468,18.6699104 4.44789489,18.6406558 C4.09826543,18.6114012 3.81818182,18.3042281 3.81818182,17.9538697 C3.81818182,17.6035112 4.09826543,17.3370856 4.44789489,17.35833 C4.80132468,17.3802709 5.09090909,17.6881406 5.09090909,18.0461609" id="Fill-49"></path>
                <path d="M20.8842242,19.1097 C20.8842242,19.6103571 20.3691939,19.9733143 19.7425879,19.9212429 C19.1248909,19.8703286 18.6310727,19.4344714 18.6310727,18.9477 C18.6310727,18.4605429 19.1248909,18.0956571 19.7425879,18.1334571 C20.3691939,18.1716429 20.8842242,18.6090429 20.8842242,19.1097" id="Fill-51"></path>
                <path d="M1.23607273,21.9657536 C1.23607273,22.2736821 0.9548,22.4871107 0.611587879,22.4424321 C0.272193939,22.3990393 -0.00016969697,22.119075 -0.00016969697,21.817575 C-0.00016969697,21.5157536 0.272193939,21.3013607 0.611587879,21.3389679 C0.9548,21.3768964 1.23607273,21.657825 1.23607273,21.9657536" id="Fill-54"></path>
                <path d="M5.09090909,22.5917961 C5.09090909,22.9467999 4.80132468,23.1898064 4.44789489,23.1351904 C4.09826543,23.0812658 3.81818182,22.7559897 3.81818182,22.4085907 C3.81818182,22.060846 4.09826543,21.8164568 4.44789489,21.8627767 C4.80132468,21.9097879 5.09090909,22.2364467 5.09090909,22.5917961" id="Fill-57"></path>
                <path d="M20.8842242,25.3037143 C20.8842242,25.86 20.3691939,26.2225714 19.7425879,26.115 C19.1248909,26.0087143 18.6310727,25.4845714 18.6310727,24.9432857 C18.6310727,24.402 19.1248909,24.0364286 19.7425879,24.1277143 C20.3691939,24.2207143 20.8842242,24.7474286 20.8842242,25.3037143" id="Fill-59"></path>
            </g>
        </g>
    </g>
</svg>
